<svg xmlns="http://www.w3.org/2000/svg" xmlns:xlink="http://www.w3.org/1999/xlink" width="600" zoomAndPan="magnify" viewBox="0 0 450 149.999998" height="200" preserveAspectRatio="xMidYMid meet" version="1.0"><defs><g/><clipPath id="6072c28f14"><path d="M 172.75 45 L 234.8125 45 L 234.8125 105 L 172.75 105 Z M 172.75 45 " clip-rule="nonzero"/></clipPath></defs><g fill="#000000" fill-opacity="1"><g transform="translate(28.787285, 85.874997)"><g><path d="M 6.96875 -20.15625 L 6.96875 -12.578125 L 16.890625 -12.578125 L 16.890625 -10.328125 L 6.96875 -10.328125 L 6.96875 -2.25 L 9.53125 -2.25 L 9.53125 0 L 1.875 0 L 1.875 -2.25 L 4.4375 -2.25 L 4.4375 -20.15625 L 1.875 -20.15625 L 1.875 -22.40625 L 19.34375 -22.40625 L 19.34375 -17.609375 L 16.8125 -17.609375 L 16.8125 -20.15625 Z M 6.96875 -20.15625 "/></g></g></g><g fill="#000000" fill-opacity="1"><g transform="translate(50.000854, 85.874997)"><g><path d="M 4.4375 -20.15625 L 1.875 -20.15625 L 1.875 -22.40625 L 9.53125 -22.40625 L 9.53125 -20.15625 L 6.96875 -20.15625 L 6.96875 -2.25 L 9.53125 -2.25 L 9.53125 0 L 1.875 0 L 1.875 -2.25 L 4.4375 -2.25 Z M 4.4375 -20.15625 "/></g></g></g><g fill="#000000" fill-opacity="1"><g transform="translate(61.404319, 85.874997)"><g><path d="M 1.875 0 L 1.875 -2.25 L 4.4375 -2.25 L 4.4375 -20.15625 L 1.875 -20.15625 L 1.875 -22.40625 L 9.53125 -22.40625 L 9.53125 -20.15625 L 6.96875 -20.15625 L 6.96875 -2.25 L 15.890625 -2.25 L 15.890625 -4.796875 L 18.421875 -4.796875 L 18.421875 0 Z M 1.875 0 "/></g></g></g><g fill="#000000" fill-opacity="1"><g transform="translate(81.696237, 85.874997)"><g><path d="M 4.4375 -20.15625 L 1.875 -20.15625 L 1.875 -22.40625 L 9.53125 -22.40625 L 9.53125 -20.15625 L 6.96875 -20.15625 L 6.96875 -2.25 L 9.53125 -2.25 L 9.53125 0 L 1.875 0 L 1.875 -2.25 L 4.4375 -2.25 Z M 4.4375 -20.15625 "/></g></g></g><g fill="#000000" fill-opacity="1"><g transform="translate(93.099702, 85.874997)"><g><path d="M 4.4375 -20.15625 L 1.875 -20.15625 L 1.875 -22.40625 L 13.765625 -22.40625 C 15.335938 -22.40625 16.675781 -22.125 17.78125 -21.5625 C 18.894531 -21.007812 19.742188 -20.210938 20.328125 -19.171875 C 20.921875 -18.140625 21.21875 -16.90625 21.21875 -15.46875 C 21.21875 -14.03125 20.921875 -12.789062 20.328125 -11.75 C 19.742188 -10.71875 18.894531 -9.921875 17.78125 -9.359375 C 16.675781 -8.804688 15.335938 -8.53125 13.765625 -8.53125 L 6.96875 -8.53125 L 6.96875 -2.25 L 9.53125 -2.25 L 9.53125 0 L 1.875 0 L 1.875 -2.25 L 4.4375 -2.25 Z M 13.765625 -20.15625 L 6.96875 -20.15625 L 6.96875 -10.78125 L 13.765625 -10.78125 C 14.867188 -10.78125 15.78125 -10.972656 16.5 -11.359375 C 17.226562 -11.742188 17.769531 -12.285156 18.125 -12.984375 C 18.476562 -13.691406 18.65625 -14.519531 18.65625 -15.46875 C 18.65625 -16.414062 18.476562 -17.238281 18.125 -17.9375 C 17.769531 -18.644531 17.226562 -19.191406 16.5 -19.578125 C 15.78125 -19.960938 14.867188 -20.15625 13.765625 -20.15625 Z M 13.765625 -20.15625 "/></g></g></g><g fill="#000000" fill-opacity="1"><g transform="translate(115.875389, 85.874997)"><g><path d="M 4.4375 -20.15625 L 1.875 -20.15625 L 1.875 -22.40625 L 13.765625 -22.40625 C 15.335938 -22.40625 16.675781 -22.125 17.78125 -21.5625 C 18.894531 -21.007812 19.742188 -20.210938 20.328125 -19.171875 C 20.921875 -18.140625 21.21875 -16.90625 21.21875 -15.46875 C 21.21875 -14.03125 20.921875 -12.789062 20.328125 -11.75 C 19.742188 -10.71875 18.894531 -9.921875 17.78125 -9.359375 C 16.675781 -8.804688 15.335938 -8.53125 13.765625 -8.53125 L 6.96875 -8.53125 L 6.96875 -2.25 L 9.53125 -2.25 L 9.53125 0 L 1.875 0 L 1.875 -2.25 L 4.4375 -2.25 Z M 13.765625 -20.15625 L 6.96875 -20.15625 L 6.96875 -10.78125 L 13.765625 -10.78125 C 14.867188 -10.78125 15.78125 -10.972656 16.5 -11.359375 C 17.226562 -11.742188 17.769531 -12.285156 18.125 -12.984375 C 18.476562 -13.691406 18.65625 -14.519531 18.65625 -15.46875 C 18.65625 -16.414062 18.476562 -17.238281 18.125 -17.9375 C 17.769531 -18.644531 17.226562 -19.191406 16.5 -19.578125 C 15.78125 -19.960938 14.867188 -20.15625 13.765625 -20.15625 Z M 13.765625 -20.15625 "/></g></g></g><g fill="#000000" fill-opacity="1"><g transform="translate(138.651075, 85.874997)"><g><path d="M 16.8125 -17.609375 L 16.8125 -20.15625 L 6.96875 -20.15625 L 6.96875 -12.578125 L 16.890625 -12.578125 L 16.890625 -10.328125 L 6.96875 -10.328125 L 6.96875 -2.25 L 16.96875 -2.25 L 16.96875 -4.796875 L 19.5 -4.796875 L 19.5 0 L 1.875 0 L 1.875 -2.25 L 4.4375 -2.25 L 4.4375 -20.15625 L 1.875 -20.15625 L 1.875 -22.40625 L 19.34375 -22.40625 L 19.34375 -17.609375 Z M 16.8125 -17.609375 "/></g></g></g><g fill="#000000" fill-opacity="1"><g transform="translate(247.523428, 85.874997)"><g><path d="M 4.4375 -20.15625 L 1.875 -20.15625 L 1.875 -22.40625 L 7.96875 -22.40625 L 15.671875 -3.6875 L 23.375 -22.40625 L 29.46875 -22.40625 L 29.46875 -20.15625 L 26.90625 -20.15625 L 26.90625 -2.25 L 29.46875 -2.25 L 29.46875 0 L 21.8125 0 L 21.8125 -2.25 L 24.375 -2.25 L 24.375 -18.421875 L 16.796875 0 L 14.546875 0 L 6.96875 -18.421875 L 6.96875 -2.25 L 9.53125 -2.25 L 9.53125 0 L 1.875 0 L 1.875 -2.25 L 4.4375 -2.25 Z M 4.4375 -20.15625 "/></g></g></g><g fill="#000000" fill-opacity="1"><g transform="translate(278.859524, 85.874997)"><g><path d="M 1.5625 -11.203125 C 1.5625 -12.773438 1.796875 -14.253906 2.265625 -15.640625 C 2.742188 -17.023438 3.453125 -18.25 4.390625 -19.3125 C 5.328125 -20.375 6.484375 -21.207031 7.859375 -21.8125 C 9.234375 -22.414062 10.816406 -22.71875 12.609375 -22.71875 C 14.410156 -22.71875 15.992188 -22.414062 17.359375 -21.8125 C 18.734375 -21.207031 19.890625 -20.375 20.828125 -19.3125 C 21.765625 -18.25 22.46875 -17.023438 22.9375 -15.640625 C 23.414062 -14.253906 23.65625 -12.773438 23.65625 -11.203125 C 23.65625 -9.628906 23.414062 -8.148438 22.9375 -6.765625 C 22.46875 -5.378906 21.765625 -4.15625 20.828125 -3.09375 C 19.890625 -2.03125 18.734375 -1.195312 17.359375 -0.59375 C 15.992188 0.0078125 14.410156 0.3125 12.609375 0.3125 C 10.816406 0.3125 9.234375 0.0078125 7.859375 -0.59375 C 6.484375 -1.195312 5.328125 -2.03125 4.390625 -3.09375 C 3.453125 -4.15625 2.742188 -5.378906 2.265625 -6.765625 C 1.796875 -8.148438 1.5625 -9.628906 1.5625 -11.203125 Z M 21.0625 -11.203125 C 21.0625 -12.472656 20.890625 -13.664062 20.546875 -14.78125 C 20.203125 -15.90625 19.675781 -16.890625 18.96875 -17.734375 C 18.269531 -18.585938 17.390625 -19.253906 16.328125 -19.734375 C 15.273438 -20.222656 14.035156 -20.46875 12.609375 -20.46875 C 11.179688 -20.46875 9.9375 -20.222656 8.875 -19.734375 C 7.820312 -19.253906 6.941406 -18.585938 6.234375 -17.734375 C 5.535156 -16.890625 5.015625 -15.90625 4.671875 -14.78125 C 4.328125 -13.664062 4.15625 -12.472656 4.15625 -11.203125 C 4.15625 -9.929688 4.328125 -8.734375 4.671875 -7.609375 C 5.015625 -6.492188 5.535156 -5.507812 6.234375 -4.65625 C 6.941406 -3.8125 7.820312 -3.144531 8.875 -2.65625 C 9.9375 -2.175781 11.179688 -1.9375 12.609375 -1.9375 C 14.035156 -1.9375 15.273438 -2.175781 16.328125 -2.65625 C 17.390625 -3.144531 18.269531 -3.8125 18.96875 -4.65625 C 19.675781 -5.507812 20.203125 -6.492188 20.546875 -7.609375 C 20.890625 -8.734375 21.0625 -9.929688 21.0625 -11.203125 Z M 21.0625 -11.203125 "/></g></g></g><g fill="#000000" fill-opacity="1"><g transform="translate(304.072116, 85.874997)"><g><path d="M 4.4375 -20.15625 L 1.875 -20.15625 L 1.875 -22.40625 L 7.40625 -22.40625 L 19.625 -3.734375 L 19.625 -20.15625 L 17.0625 -20.15625 L 17.0625 -22.40625 L 24.71875 -22.40625 L 24.71875 -20.15625 L 22.15625 -20.15625 L 22.15625 0 L 19.1875 0 L 6.96875 -18.671875 L 6.96875 -2.25 L 9.53125 -2.25 L 9.53125 0 L 1.875 0 L 1.875 -2.25 L 4.4375 -2.25 Z M 4.4375 -20.15625 "/></g></g></g><g fill="#000000" fill-opacity="1"><g transform="translate(330.659372, 85.874997)"><g><path d="M 18.5625 -17.609375 L 18.5625 -20.15625 L 12.75 -20.15625 L 12.75 -2.25 L 15.3125 -2.25 L 15.3125 0 L 7.65625 0 L 7.65625 -2.25 L 10.21875 -2.25 L 10.21875 -20.15625 L 4.40625 -20.15625 L 4.40625 -17.609375 L 1.875 -17.609375 L 1.875 -22.40625 L 21.09375 -22.40625 L 21.09375 -17.609375 Z M 18.5625 -17.609375 "/></g></g></g><g fill="#000000" fill-opacity="1"><g transform="translate(353.622513, 85.874997)"><g><path d="M 16.8125 -17.609375 L 16.8125 -20.15625 L 6.96875 -20.15625 L 6.96875 -12.578125 L 16.890625 -12.578125 L 16.890625 -10.328125 L 6.96875 -10.328125 L 6.96875 -2.25 L 16.96875 -2.25 L 16.96875 -4.796875 L 19.5 -4.796875 L 19.5 0 L 1.875 0 L 1.875 -2.25 L 4.4375 -2.25 L 4.4375 -20.15625 L 1.875 -20.15625 L 1.875 -22.40625 L 19.34375 -22.40625 L 19.34375 -17.609375 Z M 16.8125 -17.609375 "/></g></g></g><g fill="#000000" fill-opacity="1"><g transform="translate(374.992293, 85.874997)"><g><path d="M 4.4375 -20.15625 L 1.875 -20.15625 L 1.875 -22.40625 L 9.53125 -22.40625 L 9.53125 -20.15625 L 6.96875 -20.15625 L 6.96875 -2.25 L 9.53125 -2.25 L 9.53125 0 L 1.875 0 L 1.875 -2.25 L 4.4375 -2.25 Z M 4.4375 -20.15625 "/></g></g></g><g fill="#000000" fill-opacity="1"><g transform="translate(386.395758, 85.874997)"><g><path d="M 4.4375 -20.15625 L 1.875 -20.15625 L 1.875 -22.40625 L 14.21875 -22.40625 C 15.65625 -22.40625 16.890625 -22.132812 17.921875 -21.59375 C 18.953125 -21.0625 19.742188 -20.304688 20.296875 -19.328125 C 20.859375 -18.359375 21.140625 -17.21875 21.140625 -15.90625 C 21.140625 -14.75 20.90625 -13.722656 20.4375 -12.828125 C 19.96875 -11.929688 19.304688 -11.195312 18.453125 -10.625 C 17.609375 -10.0625 16.613281 -9.6875 15.46875 -9.5 L 19.25 -2.25 L 21.8125 -2.25 L 21.8125 0 L 17.78125 0 L 12.875 -9.40625 L 6.96875 -9.40625 L 6.96875 -2.25 L 9.53125 -2.25 L 9.53125 0 L 1.875 0 L 1.875 -2.25 L 4.4375 -2.25 Z M 14.21875 -20.15625 L 6.96875 -20.15625 L 6.96875 -11.65625 L 14.21875 -11.65625 C 15.21875 -11.65625 16.039062 -11.835938 16.6875 -12.203125 C 17.332031 -12.566406 17.804688 -13.066406 18.109375 -13.703125 C 18.421875 -14.347656 18.578125 -15.082031 18.578125 -15.90625 C 18.578125 -16.726562 18.421875 -17.457031 18.109375 -18.09375 C 17.804688 -18.738281 17.332031 -19.242188 16.6875 -19.609375 C 16.039062 -19.972656 15.21875 -20.15625 14.21875 -20.15625 Z M 14.21875 -20.15625 "/></g></g></g><g fill="#000000" fill-opacity="1"><g transform="translate(409.76505, 85.874997)"><g><path d="M 1.5625 -11.203125 C 1.5625 -12.773438 1.796875 -14.253906 2.265625 -15.640625 C 2.742188 -17.023438 3.453125 -18.25 4.390625 -19.3125 C 5.328125 -20.375 6.484375 -21.207031 7.859375 -21.8125 C 9.234375 -22.414062 10.816406 -22.71875 12.609375 -22.71875 C 14.410156 -22.71875 15.992188 -22.414062 17.359375 -21.8125 C 18.734375 -21.207031 19.890625 -20.375 20.828125 -19.3125 C 21.765625 -18.25 22.46875 -17.023438 22.9375 -15.640625 C 23.414062 -14.253906 23.65625 -12.773438 23.65625 -11.203125 C 23.65625 -9.628906 23.414062 -8.148438 22.9375 -6.765625 C 22.46875 -5.378906 21.765625 -4.15625 20.828125 -3.09375 C 19.890625 -2.03125 18.734375 -1.195312 17.359375 -0.59375 C 15.992188 0.0078125 14.410156 0.3125 12.609375 0.3125 C 10.816406 0.3125 9.234375 0.0078125 7.859375 -0.59375 C 6.484375 -1.195312 5.328125 -2.03125 4.390625 -3.09375 C 3.453125 -4.15625 2.742188 -5.378906 2.265625 -6.765625 C 1.796875 -8.148438 1.5625 -9.628906 1.5625 -11.203125 Z M 21.0625 -11.203125 C 21.0625 -12.472656 20.890625 -13.664062 20.546875 -14.78125 C 20.203125 -15.90625 19.675781 -16.890625 18.96875 -17.734375 C 18.269531 -18.585938 17.390625 -19.253906 16.328125 -19.734375 C 15.273438 -20.222656 14.035156 -20.46875 12.609375 -20.46875 C 11.179688 -20.46875 9.9375 -20.222656 8.875 -19.734375 C 7.820312 -19.253906 6.941406 -18.585938 6.234375 -17.734375 C 5.535156 -16.890625 5.015625 -15.90625 4.671875 -14.78125 C 4.328125 -13.664062 4.15625 -12.472656 4.15625 -11.203125 C 4.15625 -9.929688 4.328125 -8.734375 4.671875 -7.609375 C 5.015625 -6.492188 5.535156 -5.507812 6.234375 -4.65625 C 6.941406 -3.8125 7.820312 -3.144531 8.875 -2.65625 C 9.9375 -2.175781 11.179688 -1.9375 12.609375 -1.9375 C 14.035156 -1.9375 15.273438 -2.175781 16.328125 -2.65625 C 17.390625 -3.144531 18.269531 -3.8125 18.96875 -4.65625 C 19.675781 -5.507812 20.203125 -6.492188 20.546875 -7.609375 C 20.890625 -8.734375 21.0625 -9.929688 21.0625 -11.203125 Z M 21.0625 -11.203125 "/></g></g></g><g clip-path="url(#6072c28f14)"><path fill="#000000" d="M 172.75 45 L 234.859375 45 L 234.859375 105 L 172.75 105 Z M 172.75 45 " fill-opacity="1" fill-rule="nonzero"/></g><path fill="#000000" d="M 186.015625 104.984375 L 190.378906 101.230469 C 198.042969 94.695312 206.191406 90.71875 216.429688 90.90625 L 226.359375 91.089844 C 228.84375 91.136719 231.164062 89.519531 231.636719 87.265625 L 231.636719 85.496094 C 231.433594 84.417969 230.851562 83.378906 229.855469 82.585938 L 190 50.003906 L 189.554688 51.960938 L 177.015625 101.875 C 176.753906 102.988281 175.632812 104.054688 176.050781 104.976562 " fill-opacity="1" fill-rule="nonzero"/><path fill="#ffffff" d="M 191.515625 45.011719 L 191.136719 45.011719 L 189.996094 50.003906 L 184.074219 45.066406 L 174.09375 102.839844 C 173.960938 103.59375 174.011719 104.324219 174.191406 104.988281 L 178.46875 104.988281 C 178.0625 104.0625 177.925781 102.996094 178.179688 101.886719 L 190 50.003906 L 229.117188 82.597656 C 230.347656 83.628906 230.929688 85.046875 230.917969 86.453125 C 230.898438 89.132812 228.421875 91.148438 225.742188 91.101562 L 216.167969 90.917969 C 206.300781 90.730469 196.726562 94.25 189.335938 100.789062 L 184.578125 104.996094 L 188.03125 104.996094 L 193.503906 100.644531 C 201.230469 94.507812 210.980469 91.496094 220.820312 92.203125 L 230.371094 92.894531 C 232.09375 93.015625 233.769531 92.28125 234.789062 91.027344 L 234.789062 85.257812 C 234.613281 85.023438 234.414062 84.792969 234.1875 84.582031 Z M 191.515625 45.011719 " fill-opacity="1" fill-rule="nonzero"/></svg>