<?xml version="1.0" encoding="utf-8"?>
<!-- Generator: Adobe Illustrator 24.0.1, SVG Export Plug-In . SVG Version: 6.00 Build 0)  -->
<svg version="1.1" id="Logo_SVG" xmlns="http://www.w3.org/2000/svg" xmlns:xlink="http://www.w3.org/1999/xlink" x="0px" y="0px"
	 viewBox="0 0 1024 989.8" style="enable-background:new 0 0 1024 989.8;" xml:space="preserve">
<style type="text/css">
	.st0{display:none;fill:#1D1D1B;}
	.st1{fill:#C92B2B;}
	.st2{fill:#FFFFFF;}
	.st3{display:none;}
	.st4{display:inline;fill:#1D1D1B;}
	.st5{display:inline;fill:#C92B2B;}
	.st6{display:inline;fill:#FFFFFF;}
</style>
<g id="Logotipo">
	<rect x="0" y="0" class="st0" width="1024" height="989.8"/>
	<path class="st0" d="M218.9,989.7l72-61.9c126.5-107.9,261-173.5,429.9-170.4l163.9,3c41,0.8,79.3-25.9,87.1-63.1v-29.2
		c-3.4-17.8-13-34.9-29.4-48L284.7,82.4l-7.4,32.3L70.4,938.4c-4.3,18.4-22.8,36-15.9,51.2"/>
	<path class="st1" d="M218.9,989.7l72-61.9c126.5-107.9,261-173.5,429.9-170.4l163.9,3c41,0.8,79.3-25.9,87.1-63.1v-29.2
		c-3.4-17.8-13-34.9-29.4-48L284.7,82.4l-7.4,32.3L70.4,938.4c-4.3,18.4-22.8,36-15.9,51.2"/>
	<path class="st2" d="M309.7,0h-6.3l-18.8,82.4L186.9,0.9L22.2,954.3c-2.2,12.5-1.4,24.5,1.6,35.5h70.6c-6.7-15.3-9-32.9-4.8-51.2
		L284.7,82.4l645.5,537.9c20.3,17,29.9,40.4,29.7,63.6c-0.3,44.2-41.2,77.5-85.4,76.7l-158-3c-162.8-3.1-320.8,55-442.8,162.9
		l-78.5,69.4h57l90.3-71.8c127.5-101.3,288.4-151,450.8-139.3l157.6,11.4c28.4,2,56.1-10.1,72.9-30.8v-95.2
		c-2.9-3.9-6.2-7.7-9.9-11.2L309.7,0z"/>
</g>
<g class="st3">
	<path class="st4" d="M958.6,82.5v519.1l55.5,51.4c3.8,3.5,7,7.3,9.9,11.2V0H309.7l89,82.5H958.6z"/>
	<path class="st4" d="M23.7,989.8c-3-11.1-3.7-23-1.6-35.5l39.5-228.8v-643h111.1l14.1-81.6l97.8,81.5L303.4,0H0v989.8h61.7v0H23.7z
		"/>
	<polygon class="st4" points="284.6,82.5 284.8,82.5 284.7,82.4 	"/>
	<path class="st4" d="M960,683.9c0-5.2-0.4-10.4-1.4-15.6v29.2C959.4,693,959.9,688.5,960,683.9z"/>
	<path class="st4" d="M958.6,790.4v199.4h65.4V759.4C1008.6,778.2,984.2,790,958.6,790.4z"/>
	<polygon class="st4" points="61.7,82.5 61.7,725.5 172.8,82.5 	"/>
	<polygon class="st5" points="61.7,82.5 61.7,725.5 172.8,82.5 	"/>
	<polygon class="st4" points="398.7,82.5 958.6,601.6 958.6,82.5 	"/>
	<polygon class="st5" points="398.7,82.5 958.6,601.6 958.6,82.5 	"/>
	<path class="st4" d="M951.1,790.2l-157.6-11.4c-162.4-11.7-323.3,38-450.8,139.3l-90.3,71.8h-57l78.5-69.4
		c122-107.9,280-166,442.8-162.9l158,3c39.5,0.8,76.5-25.9,84-63.1v-29.2c-3.3-17.8-12.6-34.9-28.3-48L284.8,82.5h-0.2l-195,856.1
		c-4.2,18.4-1.9,36,4.8,51.2H61.7v0h896.9V790.4C956.1,790.4,953.6,790.4,951.1,790.2z"/>
	<path class="st5" d="M168.2,928.8l78.5-69.4c122-107.9,280-166,442.8-162.9l158,3c39.5,0.8,76.5-25.9,84-63.1v-29.2
		c-3.3-17.8-12.6-34.9-28.3-48L257.6,21.4h-0.2l-195,856.1c-4.2,18.4-1.9,36,4.8,51.2"/>
	<polygon class="st6" points="1024,664.2 1024,664.2 1024,759.4 1024,759.4 	"/>
	<rect x="303.4" y="0" class="st6" width="6.3" height="0"/>
	<path class="st4" d="M22.2,954.3c-2.2,12.5-1.4,24.5,1.6,35.5h37.9V725.5L22.2,954.3z"/>
	<path class="st6" d="M22.2,954.3c-2.2,12.5-1.4,24.5,1.6,35.5h37.9V725.5L22.2,954.3z"/>
	<path class="st4" d="M1014.1,653l-55.5-51.4v66.7c1,5.2,1.4,10.4,1.4,15.6c0,4.6-0.5,9.2-1.4,13.6v93c25.7-0.4,50-12.2,65.4-31
		v-95.2C1021.1,660.3,1017.8,656.5,1014.1,653z"/>
	<path class="st6" d="M1014.1,653l-55.5-51.4v66.7c1,5.2,1.4,10.4,1.4,15.6c0,4.6-0.5,9.2-1.4,13.6v93c25.7-0.4,50-12.2,65.4-31
		v-95.2C1021.1,660.3,1017.8,656.5,1014.1,653z"/>
	<polygon class="st4" points="186.9,0.9 172.8,82.5 284.6,82.5 284.7,82.4 284.8,82.5 398.7,82.5 309.7,0 303.4,0 284.7,82.4 	"/>
	<polygon class="st6" points="186.9,0.9 172.8,82.5 284.6,82.5 284.7,82.4 284.8,82.5 398.7,82.5 309.7,0 303.4,0 284.7,82.4 	"/>
	<path class="st4" d="M284.8,82.5l645.4,537.7c15.8,13.1,25,30.2,28.3,48v-66.7L398.7,82.5H284.8z"/>
	<path class="st5" d="M284.8,82.5l645.4,537.7c15.8,13.1,25,30.2,28.3,48v-66.7L398.7,82.5H284.8z"/>
	<path class="st6" d="M284.8,82.5l645.4,537.7c15.8,13.1,25,30.2,28.3,48v-66.7L398.7,82.5H284.8z"/>
	<path class="st4" d="M61.7,725.5v264.3h32.7c-6.7-15.3-9-32.9-4.8-51.2l195-856.1H172.8L61.7,725.5z"/>
	<path class="st5" d="M61.7,725.5v264.3h32.7c-6.7-15.3-9-32.9-4.8-51.2l195-856.1H172.8L61.7,725.5z"/>
	<path class="st6" d="M61.7,725.5v264.3h32.7c-6.7-15.3-9-32.9-4.8-51.2l195-856.1H172.8L61.7,725.5z"/>
	<path class="st4" d="M874.6,760.5l-158-3c-162.8-3.1-320.8,55-442.8,162.9l-78.5,69.4h57l90.3-71.8
		c127.5-101.3,288.4-151,450.8-139.3l157.6,11.4c2.5,0.2,5,0.2,7.5,0.2v-93C951,734.7,914.1,761.3,874.6,760.5z"/>
	<path class="st5" d="M874.6,760.5l-158-3c-162.8-3.1-320.8,55-442.8,162.9l-78.5,69.4h57l90.3-71.8
		c127.5-101.3,288.4-151,450.8-139.3l157.6,11.4c2.5,0.2,5,0.2,7.5,0.2v-93C951,734.7,914.1,761.3,874.6,760.5z"/>
	<path class="st6" d="M874.6,760.5l-158-3c-162.8-3.1-320.8,55-442.8,162.9l-78.5,69.4h57l90.3-71.8
		c127.5-101.3,288.4-151,450.8-139.3l157.6,11.4c2.5,0.2,5,0.2,7.5,0.2v-93C951,734.7,914.1,761.3,874.6,760.5z"/>
</g>
</svg>
