<svg xmlns="http://www.w3.org/2000/svg" xmlns:xlink="http://www.w3.org/1999/xlink" width="600" zoomAndPan="magnify" viewBox="0 0 450 149.999998" height="200" preserveAspectRatio="xMidYMid meet" version="1.0"><defs><g/><clipPath id="8a181674cc"><path d="M 173 45 L 234.964844 45 L 234.964844 105 L 173 105 Z M 173 45 " clip-rule="nonzero"/></clipPath></defs><path fill="#1d1d1b" d="M 186.023438 104.984375 L 190.402344 101.230469 C 198.089844 94.695312 206.265625 90.71875 216.535156 90.90625 L 226.5 91.089844 C 228.992188 91.136719 231.320312 89.519531 231.792969 87.265625 L 231.792969 85.496094 C 231.585938 84.417969 231.003906 83.378906 230.007812 82.585938 L 190.023438 50.003906 L 189.574219 51.960938 L 176.996094 101.875 C 176.734375 102.988281 175.609375 104.054688 176.03125 104.976562 " fill-opacity="1" fill-rule="nonzero"/><g clip-path="url(#8a181674cc)"><path fill="#ffffff" d="M 191.542969 45.011719 L 191.160156 45.011719 L 190.019531 50.003906 L 184.078125 45.066406 L 174.066406 102.839844 C 173.933594 103.59375 173.980469 104.324219 174.164062 104.988281 L 178.457031 104.988281 C 178.046875 104.0625 177.910156 102.996094 178.164062 101.886719 L 190.023438 50.003906 L 229.265625 82.597656 C 230.5 83.628906 231.082031 85.046875 231.070312 86.453125 C 231.050781 89.132812 228.566406 91.148438 225.878906 91.101562 L 216.273438 90.917969 C 206.375 90.730469 196.773438 94.25 189.355469 100.789062 L 184.582031 104.996094 L 188.046875 104.996094 L 193.539062 100.644531 C 201.289062 94.507812 211.070312 91.496094 220.941406 92.203125 L 230.523438 92.894531 C 232.25 93.015625 233.933594 92.28125 234.953125 91.027344 L 234.953125 85.257812 C 234.777344 85.023438 234.578125 84.792969 234.351562 84.582031 Z M 191.542969 45.011719 " fill-opacity="1" fill-rule="nonzero"/></g><g fill="#ffffff" fill-opacity="1"><g transform="translate(28.720653, 87.299985)"><g><path d="M 6.96875 -20.15625 L 6.96875 -12.578125 L 16.890625 -12.578125 L 16.890625 -10.328125 L 6.96875 -10.328125 L 6.96875 -2.25 L 9.53125 -2.25 L 9.53125 0 L 1.875 0 L 1.875 -2.25 L 4.4375 -2.25 L 4.4375 -20.15625 L 1.875 -20.15625 L 1.875 -22.40625 L 19.34375 -22.40625 L 19.34375 -17.609375 L 16.8125 -17.609375 L 16.8125 -20.15625 Z M 6.96875 -20.15625 "/></g></g></g><g fill="#ffffff" fill-opacity="1"><g transform="translate(49.934222, 87.299985)"><g><path d="M 4.4375 -20.15625 L 1.875 -20.15625 L 1.875 -22.40625 L 9.53125 -22.40625 L 9.53125 -20.15625 L 6.96875 -20.15625 L 6.96875 -2.25 L 9.53125 -2.25 L 9.53125 0 L 1.875 0 L 1.875 -2.25 L 4.4375 -2.25 Z M 4.4375 -20.15625 "/></g></g></g><g fill="#ffffff" fill-opacity="1"><g transform="translate(61.337687, 87.299985)"><g><path d="M 1.875 0 L 1.875 -2.25 L 4.4375 -2.25 L 4.4375 -20.15625 L 1.875 -20.15625 L 1.875 -22.40625 L 9.53125 -22.40625 L 9.53125 -20.15625 L 6.96875 -20.15625 L 6.96875 -2.25 L 15.890625 -2.25 L 15.890625 -4.796875 L 18.421875 -4.796875 L 18.421875 0 Z M 1.875 0 "/></g></g></g><g fill="#ffffff" fill-opacity="1"><g transform="translate(81.629605, 87.299985)"><g><path d="M 4.4375 -20.15625 L 1.875 -20.15625 L 1.875 -22.40625 L 9.53125 -22.40625 L 9.53125 -20.15625 L 6.96875 -20.15625 L 6.96875 -2.25 L 9.53125 -2.25 L 9.53125 0 L 1.875 0 L 1.875 -2.25 L 4.4375 -2.25 Z M 4.4375 -20.15625 "/></g></g></g><g fill="#ffffff" fill-opacity="1"><g transform="translate(93.03307, 87.299985)"><g><path d="M 4.4375 -20.15625 L 1.875 -20.15625 L 1.875 -22.40625 L 13.765625 -22.40625 C 15.335938 -22.40625 16.675781 -22.125 17.78125 -21.5625 C 18.894531 -21.007812 19.742188 -20.210938 20.328125 -19.171875 C 20.921875 -18.140625 21.21875 -16.90625 21.21875 -15.46875 C 21.21875 -14.03125 20.921875 -12.789062 20.328125 -11.75 C 19.742188 -10.71875 18.894531 -9.921875 17.78125 -9.359375 C 16.675781 -8.804688 15.335938 -8.53125 13.765625 -8.53125 L 6.96875 -8.53125 L 6.96875 -2.25 L 9.53125 -2.25 L 9.53125 0 L 1.875 0 L 1.875 -2.25 L 4.4375 -2.25 Z M 13.765625 -20.15625 L 6.96875 -20.15625 L 6.96875 -10.78125 L 13.765625 -10.78125 C 14.867188 -10.78125 15.78125 -10.972656 16.5 -11.359375 C 17.226562 -11.742188 17.769531 -12.285156 18.125 -12.984375 C 18.476562 -13.691406 18.65625 -14.519531 18.65625 -15.46875 C 18.65625 -16.414062 18.476562 -17.238281 18.125 -17.9375 C 17.769531 -18.644531 17.226562 -19.191406 16.5 -19.578125 C 15.78125 -19.960938 14.867188 -20.15625 13.765625 -20.15625 Z M 13.765625 -20.15625 "/></g></g></g><g fill="#ffffff" fill-opacity="1"><g transform="translate(115.808757, 87.299985)"><g><path d="M 4.4375 -20.15625 L 1.875 -20.15625 L 1.875 -22.40625 L 13.765625 -22.40625 C 15.335938 -22.40625 16.675781 -22.125 17.78125 -21.5625 C 18.894531 -21.007812 19.742188 -20.210938 20.328125 -19.171875 C 20.921875 -18.140625 21.21875 -16.90625 21.21875 -15.46875 C 21.21875 -14.03125 20.921875 -12.789062 20.328125 -11.75 C 19.742188 -10.71875 18.894531 -9.921875 17.78125 -9.359375 C 16.675781 -8.804688 15.335938 -8.53125 13.765625 -8.53125 L 6.96875 -8.53125 L 6.96875 -2.25 L 9.53125 -2.25 L 9.53125 0 L 1.875 0 L 1.875 -2.25 L 4.4375 -2.25 Z M 13.765625 -20.15625 L 6.96875 -20.15625 L 6.96875 -10.78125 L 13.765625 -10.78125 C 14.867188 -10.78125 15.78125 -10.972656 16.5 -11.359375 C 17.226562 -11.742188 17.769531 -12.285156 18.125 -12.984375 C 18.476562 -13.691406 18.65625 -14.519531 18.65625 -15.46875 C 18.65625 -16.414062 18.476562 -17.238281 18.125 -17.9375 C 17.769531 -18.644531 17.226562 -19.191406 16.5 -19.578125 C 15.78125 -19.960938 14.867188 -20.15625 13.765625 -20.15625 Z M 13.765625 -20.15625 "/></g></g></g><g fill="#ffffff" fill-opacity="1"><g transform="translate(138.584443, 87.299985)"><g><path d="M 16.8125 -17.609375 L 16.8125 -20.15625 L 6.96875 -20.15625 L 6.96875 -12.578125 L 16.890625 -12.578125 L 16.890625 -10.328125 L 6.96875 -10.328125 L 6.96875 -2.25 L 16.96875 -2.25 L 16.96875 -4.796875 L 19.5 -4.796875 L 19.5 0 L 1.875 0 L 1.875 -2.25 L 4.4375 -2.25 L 4.4375 -20.15625 L 1.875 -20.15625 L 1.875 -22.40625 L 19.34375 -22.40625 L 19.34375 -17.609375 Z M 16.8125 -17.609375 "/></g></g></g><g fill="#ffffff" fill-opacity="1"><g transform="translate(247.523428, 87.299985)"><g><path d="M 4.4375 -20.15625 L 1.875 -20.15625 L 1.875 -22.40625 L 7.96875 -22.40625 L 15.671875 -3.6875 L 23.375 -22.40625 L 29.46875 -22.40625 L 29.46875 -20.15625 L 26.90625 -20.15625 L 26.90625 -2.25 L 29.46875 -2.25 L 29.46875 0 L 21.8125 0 L 21.8125 -2.25 L 24.375 -2.25 L 24.375 -18.421875 L 16.796875 0 L 14.546875 0 L 6.96875 -18.421875 L 6.96875 -2.25 L 9.53125 -2.25 L 9.53125 0 L 1.875 0 L 1.875 -2.25 L 4.4375 -2.25 Z M 4.4375 -20.15625 "/></g></g></g><g fill="#ffffff" fill-opacity="1"><g transform="translate(278.859524, 87.299985)"><g><path d="M 1.5625 -11.203125 C 1.5625 -12.773438 1.796875 -14.253906 2.265625 -15.640625 C 2.742188 -17.023438 3.453125 -18.25 4.390625 -19.3125 C 5.328125 -20.375 6.484375 -21.207031 7.859375 -21.8125 C 9.234375 -22.414062 10.816406 -22.71875 12.609375 -22.71875 C 14.410156 -22.71875 15.992188 -22.414062 17.359375 -21.8125 C 18.734375 -21.207031 19.890625 -20.375 20.828125 -19.3125 C 21.765625 -18.25 22.46875 -17.023438 22.9375 -15.640625 C 23.414062 -14.253906 23.65625 -12.773438 23.65625 -11.203125 C 23.65625 -9.628906 23.414062 -8.148438 22.9375 -6.765625 C 22.46875 -5.378906 21.765625 -4.15625 20.828125 -3.09375 C 19.890625 -2.03125 18.734375 -1.195312 17.359375 -0.59375 C 15.992188 0.0078125 14.410156 0.3125 12.609375 0.3125 C 10.816406 0.3125 9.234375 0.0078125 7.859375 -0.59375 C 6.484375 -1.195312 5.328125 -2.03125 4.390625 -3.09375 C 3.453125 -4.15625 2.742188 -5.378906 2.265625 -6.765625 C 1.796875 -8.148438 1.5625 -9.628906 1.5625 -11.203125 Z M 21.0625 -11.203125 C 21.0625 -12.472656 20.890625 -13.664062 20.546875 -14.78125 C 20.203125 -15.90625 19.675781 -16.890625 18.96875 -17.734375 C 18.269531 -18.585938 17.390625 -19.253906 16.328125 -19.734375 C 15.273438 -20.222656 14.035156 -20.46875 12.609375 -20.46875 C 11.179688 -20.46875 9.9375 -20.222656 8.875 -19.734375 C 7.820312 -19.253906 6.941406 -18.585938 6.234375 -17.734375 C 5.535156 -16.890625 5.015625 -15.90625 4.671875 -14.78125 C 4.328125 -13.664062 4.15625 -12.472656 4.15625 -11.203125 C 4.15625 -9.929688 4.328125 -8.734375 4.671875 -7.609375 C 5.015625 -6.492188 5.535156 -5.507812 6.234375 -4.65625 C 6.941406 -3.8125 7.820312 -3.144531 8.875 -2.65625 C 9.9375 -2.175781 11.179688 -1.9375 12.609375 -1.9375 C 14.035156 -1.9375 15.273438 -2.175781 16.328125 -2.65625 C 17.390625 -3.144531 18.269531 -3.8125 18.96875 -4.65625 C 19.675781 -5.507812 20.203125 -6.492188 20.546875 -7.609375 C 20.890625 -8.734375 21.0625 -9.929688 21.0625 -11.203125 Z M 21.0625 -11.203125 "/></g></g></g><g fill="#ffffff" fill-opacity="1"><g transform="translate(304.072116, 87.299985)"><g><path d="M 4.4375 -20.15625 L 1.875 -20.15625 L 1.875 -22.40625 L 7.40625 -22.40625 L 19.625 -3.734375 L 19.625 -20.15625 L 17.0625 -20.15625 L 17.0625 -22.40625 L 24.71875 -22.40625 L 24.71875 -20.15625 L 22.15625 -20.15625 L 22.15625 0 L 19.1875 0 L 6.96875 -18.671875 L 6.96875 -2.25 L 9.53125 -2.25 L 9.53125 0 L 1.875 0 L 1.875 -2.25 L 4.4375 -2.25 Z M 4.4375 -20.15625 "/></g></g></g><g fill="#ffffff" fill-opacity="1"><g transform="translate(330.659372, 87.299985)"><g><path d="M 18.5625 -17.609375 L 18.5625 -20.15625 L 12.75 -20.15625 L 12.75 -2.25 L 15.3125 -2.25 L 15.3125 0 L 7.65625 0 L 7.65625 -2.25 L 10.21875 -2.25 L 10.21875 -20.15625 L 4.40625 -20.15625 L 4.40625 -17.609375 L 1.875 -17.609375 L 1.875 -22.40625 L 21.09375 -22.40625 L 21.09375 -17.609375 Z M 18.5625 -17.609375 "/></g></g></g><g fill="#ffffff" fill-opacity="1"><g transform="translate(353.622513, 87.299985)"><g><path d="M 16.8125 -17.609375 L 16.8125 -20.15625 L 6.96875 -20.15625 L 6.96875 -12.578125 L 16.890625 -12.578125 L 16.890625 -10.328125 L 6.96875 -10.328125 L 6.96875 -2.25 L 16.96875 -2.25 L 16.96875 -4.796875 L 19.5 -4.796875 L 19.5 0 L 1.875 0 L 1.875 -2.25 L 4.4375 -2.25 L 4.4375 -20.15625 L 1.875 -20.15625 L 1.875 -22.40625 L 19.34375 -22.40625 L 19.34375 -17.609375 Z M 16.8125 -17.609375 "/></g></g></g><g fill="#ffffff" fill-opacity="1"><g transform="translate(374.992293, 87.299985)"><g><path d="M 4.4375 -20.15625 L 1.875 -20.15625 L 1.875 -22.40625 L 9.53125 -22.40625 L 9.53125 -20.15625 L 6.96875 -20.15625 L 6.96875 -2.25 L 9.53125 -2.25 L 9.53125 0 L 1.875 0 L 1.875 -2.25 L 4.4375 -2.25 Z M 4.4375 -20.15625 "/></g></g></g><g fill="#ffffff" fill-opacity="1"><g transform="translate(386.395758, 87.299985)"><g><path d="M 4.4375 -20.15625 L 1.875 -20.15625 L 1.875 -22.40625 L 14.21875 -22.40625 C 15.65625 -22.40625 16.890625 -22.132812 17.921875 -21.59375 C 18.953125 -21.0625 19.742188 -20.304688 20.296875 -19.328125 C 20.859375 -18.359375 21.140625 -17.21875 21.140625 -15.90625 C 21.140625 -14.75 20.90625 -13.722656 20.4375 -12.828125 C 19.96875 -11.929688 19.304688 -11.195312 18.453125 -10.625 C 17.609375 -10.0625 16.613281 -9.6875 15.46875 -9.5 L 19.25 -2.25 L 21.8125 -2.25 L 21.8125 0 L 17.78125 0 L 12.875 -9.40625 L 6.96875 -9.40625 L 6.96875 -2.25 L 9.53125 -2.25 L 9.53125 0 L 1.875 0 L 1.875 -2.25 L 4.4375 -2.25 Z M 14.21875 -20.15625 L 6.96875 -20.15625 L 6.96875 -11.65625 L 14.21875 -11.65625 C 15.21875 -11.65625 16.039062 -11.835938 16.6875 -12.203125 C 17.332031 -12.566406 17.804688 -13.066406 18.109375 -13.703125 C 18.421875 -14.347656 18.578125 -15.082031 18.578125 -15.90625 C 18.578125 -16.726562 18.421875 -17.457031 18.109375 -18.09375 C 17.804688 -18.738281 17.332031 -19.242188 16.6875 -19.609375 C 16.039062 -19.972656 15.21875 -20.15625 14.21875 -20.15625 Z M 14.21875 -20.15625 "/></g></g></g><g fill="#ffffff" fill-opacity="1"><g transform="translate(409.76505, 87.299985)"><g><path d="M 1.5625 -11.203125 C 1.5625 -12.773438 1.796875 -14.253906 2.265625 -15.640625 C 2.742188 -17.023438 3.453125 -18.25 4.390625 -19.3125 C 5.328125 -20.375 6.484375 -21.207031 7.859375 -21.8125 C 9.234375 -22.414062 10.816406 -22.71875 12.609375 -22.71875 C 14.410156 -22.71875 15.992188 -22.414062 17.359375 -21.8125 C 18.734375 -21.207031 19.890625 -20.375 20.828125 -19.3125 C 21.765625 -18.25 22.46875 -17.023438 22.9375 -15.640625 C 23.414062 -14.253906 23.65625 -12.773438 23.65625 -11.203125 C 23.65625 -9.628906 23.414062 -8.148438 22.9375 -6.765625 C 22.46875 -5.378906 21.765625 -4.15625 20.828125 -3.09375 C 19.890625 -2.03125 18.734375 -1.195312 17.359375 -0.59375 C 15.992188 0.0078125 14.410156 0.3125 12.609375 0.3125 C 10.816406 0.3125 9.234375 0.0078125 7.859375 -0.59375 C 6.484375 -1.195312 5.328125 -2.03125 4.390625 -3.09375 C 3.453125 -4.15625 2.742188 -5.378906 2.265625 -6.765625 C 1.796875 -8.148438 1.5625 -9.628906 1.5625 -11.203125 Z M 21.0625 -11.203125 C 21.0625 -12.472656 20.890625 -13.664062 20.546875 -14.78125 C 20.203125 -15.90625 19.675781 -16.890625 18.96875 -17.734375 C 18.269531 -18.585938 17.390625 -19.253906 16.328125 -19.734375 C 15.273438 -20.222656 14.035156 -20.46875 12.609375 -20.46875 C 11.179688 -20.46875 9.9375 -20.222656 8.875 -19.734375 C 7.820312 -19.253906 6.941406 -18.585938 6.234375 -17.734375 C 5.535156 -16.890625 5.015625 -15.90625 4.671875 -14.78125 C 4.328125 -13.664062 4.15625 -12.472656 4.15625 -11.203125 C 4.15625 -9.929688 4.328125 -8.734375 4.671875 -7.609375 C 5.015625 -6.492188 5.535156 -5.507812 6.234375 -4.65625 C 6.941406 -3.8125 7.820312 -3.144531 8.875 -2.65625 C 9.9375 -2.175781 11.179688 -1.9375 12.609375 -1.9375 C 14.035156 -1.9375 15.273438 -2.175781 16.328125 -2.65625 C 17.390625 -3.144531 18.269531 -3.8125 18.96875 -4.65625 C 19.675781 -5.507812 20.203125 -6.492188 20.546875 -7.609375 C 20.890625 -8.734375 21.0625 -9.929688 21.0625 -11.203125 Z M 21.0625 -11.203125 "/></g></g></g></svg>