<svg id="Camada_1" data-name="Camada 1" xmlns="http://www.w3.org/2000/svg" viewBox="0 0 1651.52 380.1"><defs><style>.cls-1,.cls-3{fill:#1d1d1b;}.cls-2{fill:#fff;}.cls-3{font-size:127.23px;font-family:OratorStd, Orator Std;}</style></defs><title>Minha Logo - FM V2 (Retângulo)</title><g id="Logotipo"><rect class="cls-1" x="589.57" width="393.22" height="380.1"/><path class="cls-2" d="M882.31,350h-2.4l-7.2,31.63-37.56-31.29L771.91,716.41a31.55,31.55,0,0,0,.6,13.64h27.12a31.26,31.26,0,0,1-1.83-19.68l74.91-328.79L1120.6,588.12A31.31,31.31,0,0,1,1132,612.56c-.1,17-15.83,29.77-32.79,29.44l-60.66-1.16a249.46,249.46,0,0,0-170,62.56l-30.13,26.65H860.3L895,702.49A249.49,249.49,0,0,1,1068.09,649l60.51,4.37a33.48,33.48,0,0,0,28-11.83V605a31.9,31.9,0,0,0-3.82-4.29Z" transform="translate(-173.82 -349.95)"/></g><g id="Texto_em_preto" data-name="Texto em preto"><text class="cls-3" transform="translate(1040.83 229.7)">Monteiro</text><text class="cls-3" transform="translate(0 229.7)">Filippe</text></g></svg>